<?xml version="1.0" encoding="UTF-8"?>
<svg xmlns="http://www.w3.org/2000/svg" id="Layer_1" data-name="Layer 1" viewBox="0 0 24 24">
  <path d="m20.119,1.595c-.56-.476-1.302-.679-2.035-.562-.47.076-.894.296-1.235.612-.35-.959-1.271-1.645-2.349-1.645-.817,0-1.544.394-2,1.002-.456-.608-1.183-1.002-2-1.002-1.073,0-1.989.679-2.344,1.63-.441-.391-1.022-.63-1.656-.63-1.378,0-2.5,1.122-2.5,2.5v3.229l-1.559,1.556c-.929.927-1.44,2.16-1.441,3.472,0,1.312.51,2.546,1.439,3.476l3.82,3.785c.478.473.741,1.104.741,1.775v2.706c0,.276.224.5.5.5s.5-.224.5-.5v-2.706c0-.928-.378-1.833-1.037-2.486l-3.818-3.783c-.739-.739-1.146-1.722-1.145-2.766,0-1.045.408-2.027,1.147-2.765l2.289-2.284c.584-.584,1.535-.584,2.12,0,.283.284.439.66.439,1.061s-.157.778-.44,1.061l-2.409,2.406c-.195.195-.195.512,0,.708.195.195.512.195.708,0l2.409-2.406c.473-.473.733-1.101.733-1.769,0-.098-.006-.195-.017-.29.422.325.95.519,1.522.519.817,0,1.544-.394,2-1.002.456.608,1.183,1.002,2,1.002s1.544-.394,2-1.002c.456.608,1.183,1.002,2,1.002.562,0,1.082-.187,1.5-.501v5.485c0,1.232-.323,2.448-.934,3.518-.697,1.22-1.066,2.608-1.066,4.014v2.984c0,.276.224.5.5.5s.5-.224.5-.5v-2.984c0-1.232.323-2.448.934-3.518.697-1.22,1.066-2.607,1.066-4.014V3.5c0-.734-.321-1.429-.881-1.905ZM5,5.767v-2.267c0-.827.673-1.5,1.5-1.5s1.5.673,1.5,1.5v2c0,.098.006.194.017.288-.886-.681-2.125-.688-3.017-.021Zm5.5,1.233c-.827,0-1.5-.673-1.5-1.5v-3c0-.827.673-1.5,1.5-1.5s1.5.673,1.5,1.5v3c0,.827-.673,1.5-1.5,1.5Zm4,0c-.827,0-1.5-.673-1.5-1.5v-3c0-.827.673-1.5,1.5-1.5s1.5.673,1.5,1.5v3c0,.827-.673,1.5-1.5,1.5Zm5.5-1.5c0,.827-.673,1.5-1.5,1.5s-1.5-.673-1.5-1.5v-1.893c0-.789.535-1.471,1.244-1.586.087-.014.173-.021.258-.021.357,0,.694.123.969.357.336.286.529.703.529,1.143v2Z"/>
</svg>
